<?xml version="1.0" standalone="no"?><!DOCTYPE svg PUBLIC "-//W3C//DTD SVG 1.1//EN" "http://www.w3.org/Graphics/SVG/1.1/DTD/svg11.dtd"><svg t="1592482786338" class="icon" viewBox="0 0 1094 1024" version="1.1" xmlns="http://www.w3.org/2000/svg" p-id="570" width="34.1875" height="32" xmlns:xlink="http://www.w3.org/1999/xlink"><defs><style type="text/css"></style></defs><path d="M937.199726 0H114.885091A115.139367 115.139367 0 0 0 0.001022 115.649963v589.227624a115.139367 115.139367 0 0 0 115.139367 114.884068h372.734979v127.648966H209.345326a38.29469 38.29469 0 1 0 0 76.589379h389.584642a38.29469 38.29469 0 0 0 0-76.589379h-34.465221v-130.967839a42.379456 42.379456 0 0 0 0-8.424831 37.528796 37.528796 0 0 0 10.467215-25.529793 38.29469 38.29469 0 0 0-38.294689-38.29469H115.140389A38.549988 38.549988 0 0 1 76.590402 705.898778V115.649963a38.29469 38.29469 0 0 1 38.294689-38.29469h822.314635a38.805285 38.805285 0 0 1 38.549988 38.29469v398.520069a38.29469 38.29469 0 0 0 76.589379 0V115.649963A115.139367 115.139367 0 0 0 937.199726 0z" p-id="571" fill="#BACBD9"></path><path d="M423.284992 244.830716h-214.450262a38.29469 38.29469 0 0 1 0-76.58938h214.450262a38.29469 38.29469 0 0 1 0 76.58938zM356.90753 382.181002H209.345326a38.29469 38.29469 0 0 1 0-76.589379h147.562204a38.29469 38.29469 0 0 1 0 76.589379zM968.346074 1016.341062h-187.643979a32.167539 32.167539 0 0 1-27.827475-16.08377l-93.439043-161.858888a31.146348 31.146348 0 0 1 0-31.912241l93.439043-162.114186a32.167539 32.167539 0 0 1 27.827475-16.08377h186.878085a32.167539 32.167539 0 0 1 27.827474 16.08377l93.439043 162.114186a31.146348 31.146348 0 0 1 0 31.912241l-93.439043 161.858888a32.167539 32.167539 0 0 1-27.06158 16.08377z m-168.496635-63.824483h150.115184l75.312889-130.201944-75.312889-130.201945h-150.115184l-75.312889 130.201945z" p-id="572" fill="#BACBD9"></path><path d="M874.907031 909.115931a86.801296 86.801296 0 1 1 86.801296-86.801296 86.801296 86.801296 0 0 1-86.801296 86.801296z m0-109.77811a22.976814 22.976814 0 1 0 22.976814 22.976814 22.976814 22.976814 0 0 0-22.976814-22.976814z" p-id="573" fill="#BACBD9"></path></svg>